# xmcd CD database file
#
# Track frame offsets:
#	150
#	16260
#	42317
#	65177
#	87457
#	107540
#	128262
#	145655
#	162780
#	186185
#
# Disc length: 2785 seconds
#
# Revision: 0
# Processed by: cddbd v1.5PL3 Copyright (c) Steve Scherf et al.
# Submitted via: CDex 1.51
#
DISCID=7d0adf0a
DTITLE=Changamiré - On ly Human
DYEAR=2001
DGENRE=Jazz
TTITLE0=Only Human
TTITLE1=The Key 
TTITLE2=Ask Me How I Know
TTITLE3=Days go By 
TTITLE4=9 to 5 
TTITLE5=Together
TTITLE6=When
TTITLE7=It's over
TTITLE8=The Bag 
TTITLE9=Ask Me How I Know (remix)
EXTD=YEAR: 2001
EXTT0=
EXTT1=
EXTT2=
EXTT3=
EXTT4=
EXTT5=
EXTT6=
EXTT7=
EXTT8=
EXTT9=
PLAYORDER=
